<?xml version="1.0" encoding="UTF-8"?>
<svg width="80px" height="40px" viewBox="0 0 80 40" version="1.1" xmlns="http://www.w3.org/2000/svg" xmlns:xlink="http://www.w3.org/1999/xlink">
    <!-- Generator: Sketch 58 (84663) - https://sketch.com -->
    <title>Logo</title>
    <desc>Created with Sketch.</desc>
    <g id="TestFlight" stroke="none" stroke-width="1" fill="none" fill-rule="evenodd">
        <g id="brands" transform="translate(-137.000000, -44.000000)">
            <g id="Logo" transform="translate(137.000000, 44.000000)">
                <polygon id="Fill-1" fill="#1C1B1A" points="70.4605822 0.833555597 57.7009042 39.3751857 66.454947 39.3751857 79.2146249 0.833555597"></polygon>
                <g id="Group-7" transform="translate(0.000000, 0.194155)" fill="#DB3222">
                    <path d="M9.76716416,19.2766505 C14.0962513,16.6898688 17.5283429,14.9475634 17.5283429,11.2512082 C17.5283429,8.29512448 15.6801653,7.08051252 13.3042943,7.08051252 C10.6649933,7.08051252 8.60590509,8.61190729 8.60590509,12.4658202 L0.105288601,12.4658202 C0.105288601,5.76086204 4.85703068,0.639817903 13.251775,0.639817903 C20.0626053,0.639817903 25.9230872,4.01855661 25.9230872,11.8322546 C25.9230872,18.0620386 19.9042139,21.810913 16.2612117,23.9758733 C11.1926868,27.354612 9.81968341,28.5158711 9.81968341,31.4727885 L25.6588237,31.4727885 L25.6588237,38.3886573 L0.000250091687,38.3886573 C0.000250091687,26.4042636 4.06507367,22.8137806 9.76716416,19.2766505" id="Fill-2"></path>
                    <path d="M36.733884,25.9817754 C36.733884,29.9940797 39.0038829,32.3174315 42.2775831,32.3174315 C45.4454111,32.3174315 47.1877166,29.9940797 47.1877166,27.4598173 C47.1877166,24.3978614 45.7621939,22.3387731 41.749056,22.3387731 L38.4228365,22.3387731 L38.4228365,15.7388535 L41.749056,15.7388535 C45.5504497,15.7388535 46.6591895,13.8915096 46.6591895,11.1988557 C46.6591895,8.40032972 44.9177177,7.08067924 42.4359745,7.08067924 C38.7929722,7.08067924 37.7367517,9.24563963 37.7367517,12.4659869 L29.1844496,12.4659869 C29.1844496,6.18285008 33.0908817,0.639150991 42.2250638,0.639150991 C49.0350605,0.639150991 55.1072867,4.07124259 55.1072867,10.9879451 C55.1072867,15.1586408 52.6255435,18.1680774 49.6686261,19.1709451 C52.9948456,20.3855571 55.6874994,23.3949937 55.6874994,28.0933829 C55.6874994,35.1159575 49.4051962,39.1807811 42.3834552,39.1807811 C33.2492731,39.1807811 28.1807483,33.7954734 28.1807483,25.9817754 L36.733884,25.9817754 Z" id="Fill-4"></path>
                </g>
            </g>
        </g>
    </g>
</svg>