<?xml version="1.0" encoding="UTF-8"?>
<svg width="207px" height="61px" viewBox="0 0 207 61" version="1.1" xmlns="http://www.w3.org/2000/svg" xmlns:xlink="http://www.w3.org/1999/xlink">
    <!-- Generator: Sketch 58 (84663) - https://sketch.com -->
    <title>logo</title>
    <desc>Created with Sketch.</desc>
    <g id="TestFlight" stroke="none" stroke-width="1" fill="none" fill-rule="evenodd">
        <g id="brands" transform="translate(-386.000000, -34.000000)" fill="#000000">
            <g id="Components/Logos/_assets/Logo-DCH/Desk/Logout" transform="translate(386.000000, 34.000000)">
                <g id="Group">
                    <g id="Group-2">
                        <path d="M28.5921832,0 L0.0570301737,25.8991646 L0,25.9513291 L15.6241554,60.4097376 L15.6547827,60.48 L53.8343718,56.4356508 L53.910412,56.4271342 L61.8935802,19.4658922 L61.9115342,19.3903068 L28.6587184,0.0383249723 L28.5921832,0 Z M20.6280251,8.99572266 L28.7601054,1.61497175 L46.8006504,12.1160142 L20.6280251,8.99572266 Z M7.0685732,37.4722416 L19.6711855,10.2050885 L49.1938054,13.7224692 L51.4042527,25.530819 L42.5233873,14.7391456 L42.4811428,14.6859165 L18.7460293,21.1905159 L18.6742136,21.210743 L16.544031,46.3178582 L7.0685732,37.4722416 Z M1.58205926,26.2845435 L17.4660188,11.869031 L6.14764151,36.3523008 L1.58205926,26.2845435 Z M53.1204385,27.61953 L50.6385698,14.3473792 L60.4340302,20.0492834 L57.6205417,33.0882906 L53.1204385,27.61953 Z M17.7881336,47.0651951 L19.897194,22.2380652 L42.0175086,16.1773966 L51.9006264,28.1954692 L53.9093559,38.9211385 L47.7743878,47.8455341 L35.9966008,53.7816465 L17.7881336,47.0651951 Z M53.6210367,30.2852448 L57.0101076,34.4105022 L54.9549091,37.4041084 L53.6210367,30.2852448 Z M55.286529,39.2160279 L56.7534718,37.0868628 L55.7543876,41.7092802 L55.286529,39.2160279 Z M7.7613842,39.9112003 L27.0808836,57.9473581 L16.4510929,59.0704927 L7.7613842,39.9112003 Z M54.2504808,40.7373164 L54.9042156,44.2515034 L50.2013385,46.6201996 L54.2504808,40.7373164 Z M48.6520188,48.8728563 L54.8841494,45.7280794 L52.8363437,55.2167038 L43.6217462,56.1950552 L48.6520188,48.8728563 Z M19.52861,49.1070645 L34.3944753,54.5896647 L28.5562753,57.5321709 L19.52861,49.1070645 Z M37.6811031,54.4012336 L46.2271803,50.0949971 L42.1347373,56.044949 L37.6811031,54.4012336 Z M36.0768655,55.2103163 L39.8376886,56.5974674 L31.5957724,57.4682959 L36.0768655,55.2103163 Z" id="Fill-1-Copy"></path>
                    </g>
                    <g id="Group-2" transform="translate(73.000000, 12.000000)" fill-opacity="0.85">
                        <path d="M17.1084697,5.42640845 C14.2670705,5.42640845 11.9854056,7.56021127 11.9854056,10.4725352 C11.9854056,13.3658451 13.7692916,15.4352113 17.1501293,15.4352113 C19.5033633,15.4352113 20.7809248,14.2816901 21.3865914,13.4440141 L19.611251,12.2683099 C19.1497907,12.8228873 18.3198031,13.3838028 17.1298336,13.3838028 C15.6781564,13.3838028 14.8054409,12.6264085 14.5576196,11.1887324 L22.0659636,11.1887324 C22.0659636,11.1887324 22.0862593,10.7598592 22.0862593,10.3901408 C22.0862593,7.47676056 19.9295732,5.42640845 17.1084697,5.42640845 L17.1084697,5.42640845 Z M14.5576196,9.50704225 C14.8684644,8.05035211 15.7807031,7.3943662 17.088174,7.3943662 C18.456532,7.3943662 19.348475,8.09366197 19.4948178,9.50704225 L14.5576196,9.50704225 Z M56.0815708,5.42640845 C53.2380353,5.42640845 50.9574386,7.56021127 50.9574386,10.4725352 C50.9574386,13.3658451 52.7391881,15.4373239 56.1242986,15.4373239 C58.4753962,15.4373239 59.7540259,14.2816901 60.3586243,13.4440141 L58.583284,12.2683099 C58.1196872,12.8228873 57.2929042,13.3859155 56.1007984,13.3859155 C54.6501893,13.3859155 53.778542,12.6264085 53.5285844,11.1908451 L61.0401329,11.1908451 C61.0401329,11.1908451 61.057224,10.7598592 61.057224,10.3901408 C61.057224,7.47676056 58.9016061,5.42640845 56.0815708,5.42640845 L56.0815708,5.42640845 Z M53.5285844,9.50915493 C53.8394292,8.05246479 54.7505996,7.39647887 56.0591387,7.39647887 C57.4296332,7.39647887 58.3205079,8.09366197 58.4657825,9.50915493 L53.5285844,9.50915493 Z M121.08552,24.4922535 C118.244121,24.4922535 115.963524,26.6239437 115.963524,29.5373239 C115.963524,32.4295775 117.745274,34.5010563 121.12718,34.5010563 C123.480414,34.5010563 124.757975,33.3454225 125.36471,32.5066901 L123.587233,31.3320423 C123.126841,31.8866197 122.297922,32.4507042 121.106884,32.4507042 C119.657343,32.4507042 118.784628,31.6911972 118.53467,30.2545775 L126.041946,30.2545775 C126.041946,30.2545775 126.064378,29.8235915 126.064378,29.4549296 C126.064378,26.5415493 123.905556,24.4922535 121.08552,24.4922535 L121.08552,24.4922535 Z M118.53467,28.5728873 C118.845515,27.1172535 119.756685,26.4602113 121.064156,26.4602113 C122.433583,26.4602113 123.325526,27.1584507 123.469732,28.5728873 L118.53467,28.5728873 Z M37.2386079,24.4901408 C36.0774797,24.4901408 34.8319641,25.0035211 34.147251,25.9257042 L34.147251,19.8147887 L31.7406073,21.0443662 L31.7406073,34.1725352 L34.147251,34.1725352 L34.147251,29.4961268 C34.147251,27.2799296 35.4130623,26.6028169 36.5966226,26.6028169 C37.6925908,26.6028169 38.5653063,27.0961268 38.5653063,28.6943662 L38.5653063,34.1725352 L40.9740864,34.1725352 L40.9740864,28.4080986 C40.9740864,25.5158451 39.2703151,24.4901408 37.2386079,24.4901408 L37.2386079,24.4901408 Z M94.0292046,29.6609155 C94.0292046,27.4246479 95.2928795,26.7665493 96.4764397,26.7665493 C97.5745444,26.7665493 98.4461917,27.2588028 98.4461917,28.8602113 L98.4461917,34.1725352 L100.851767,34.1725352 L100.851767,28.5728873 C100.851767,25.6806338 99.1522687,24.6549296 97.1194932,24.6549296 C95.9551605,24.6549296 94.7128495,25.1661972 94.0292046,26.090493 L94.0292046,24.8176056 L91.6204245,24.8176056 L91.6204245,34.1725352 L94.0292046,34.1725352 L94.0292046,29.6609155 Z M29.4236919,19.8147887 L27.0790035,21.0242958 L27.0790035,34.1725352 L29.4236919,34.1725352 L29.4236919,19.8147887 Z M22.4173998,34.1725352 L24.76102,34.1725352 L24.76102,24.4901408 L22.4173998,25.6806338 L22.4173998,34.1725352 Z M23.5998918,23.0957746 C24.4298795,23.0957746 25.0932287,22.4387324 25.0932287,21.6390845 C25.0932287,20.7992958 24.4298795,20.1633803 23.5998918,20.1633803 C22.7709724,20.1633803 22.0862593,20.7992958 22.0862593,21.6390845 C22.0862593,22.4387324 22.7709724,23.0957746 23.5998918,23.0957746 L23.5998918,23.0957746 Z M102.947566,34.1725352 L105.291186,34.1725352 L105.291186,24.4901408 L102.947566,25.6806338 L102.947566,34.1725352 Z M104.131126,23.0957746 C104.958978,23.0957746 105.623395,22.4387324 105.623395,21.6390845 C105.623395,20.7992958 104.958978,20.1633803 104.131126,20.1633803 C103.299002,20.1633803 102.615357,20.7992958 102.615357,21.6390845 C102.615357,22.4387324 103.299002,23.0957746 104.131126,23.0957746 L104.131126,23.0957746 Z M130.221794,26.315493 L130.221794,24.8176056 L127.793786,24.8176056 L127.793786,34.1725352 L130.221794,34.1725352 L130.221794,29.7612676 C130.221794,28.0795775 131.152192,26.9725352 132.253501,26.9725352 C132.791871,26.9725352 133.225558,27.1785211 133.225558,27.1785211 L133.747906,24.8176056 C133.747906,24.8176056 133.187103,24.6549296 132.666892,24.6549296 C131.236579,24.6549296 130.697141,25.4556338 130.221794,26.315493 L130.221794,26.315493 Z M57.7105685,26.315493 L57.7105685,24.8176056 L55.2804245,24.8176056 L55.2804245,34.1725352 L57.7105685,34.1725352 L57.7105685,29.7612676 C57.7105685,28.0795775 58.6452393,26.9725352 59.7412075,26.9725352 C60.2795779,26.9725352 60.7186061,27.1785211 60.7186061,27.1785211 L61.2356126,24.8176056 C61.2356126,24.8176056 60.6758783,24.6549296 60.15994,24.6549296 C58.7264221,24.6549296 58.1848471,25.4556338 57.7105685,26.315493 L57.7105685,26.315493 Z M65.2146396,7.25176056 L65.2146396,5.75492958 L62.7877002,5.75492958 L62.7877002,15.1088028 L65.2146396,15.1088028 L65.2146396,10.6975352 C65.2146396,9.01584507 66.147174,7.90880282 67.247415,7.90880282 C67.7868536,7.90880282 68.2205409,8.11478873 68.2205409,8.11478873 L68.7407519,5.75492958 C68.7407519,5.75492958 68.1788812,5.58908451 67.6618748,5.58908451 C66.229425,5.58908451 65.6910547,6.39190141 65.2146396,7.25176056 L65.2146396,7.25176056 Z M33.3493092,0.751056338 L31.005689,1.96056338 L31.005689,15.1088028 L33.3493092,15.1088028 L33.3493092,0.751056338 Z M5.70014521,13.0764085 L2.83845032,13.0764085 L2.83845032,9.03697183 L5.57623457,9.03697183 C7.2981652,9.03697183 8.21040388,9.69295775 8.21040388,11.0672535 C8.21040388,12.2778169 7.52675897,13.0764085 5.70014521,13.0764085 L5.70014521,13.0764085 Z M2.83845032,3.4584507 L5.28568548,3.4584507 C6.94459259,3.4584507 7.65066961,4.13450704 7.65066961,5.20140845 C7.65066961,6.36971831 6.84204586,7.04788732 5.3914368,7.04788732 L2.83845032,7.04788732 L2.83845032,3.4584507 Z M8.19010817,7.80739437 C9.33094062,7.5 9.99428983,6.16478873 9.99428983,4.97640845 C9.99428983,1.71443662 6.90400118,1.42816901 4.56038095,1.42816901 L0.411510876,1.42816901 L0.411510876,15.1088028 L5.80482834,15.1088028 C8.77013815,15.1088028 10.6170476,13.8982394 10.6170476,11.1496479 C10.6170476,9.36443662 9.82871958,8.21619718 8.19010817,7.80739437 L8.19010817,7.80739437 Z M42.4962646,10.5971831 C42.4962646,8.35985915 43.7610076,7.70176056 44.9413633,7.70176056 C46.0426725,7.70176056 46.9132516,8.19507042 46.9132516,9.79647887 L46.9132516,15.1088028 L49.317759,15.1088028 L49.317759,9.50915493 C49.317759,6.61690141 47.6171922,5.58908451 45.5876214,5.58908451 C44.4232887,5.58908451 43.1809777,6.10352113 42.4962646,7.0278169 L42.4962646,5.75492958 L40.0885526,5.75492958 L40.0885526,15.1088028 L42.4962646,15.1088028 L42.4962646,10.5971831 Z M35.5487231,15.1088028 L37.8891387,15.1088028 L37.8891387,5.42640845 L35.5487231,6.61690141 L35.5487231,15.1088028 Z M36.730147,4.03204225 C37.5590664,4.03204225 38.2234838,3.37605634 38.2234838,2.57535211 C38.2234838,1.73556338 37.5590664,1.09753521 36.730147,1.09753521 C35.9001593,1.09753521 35.2154462,1.73556338 35.2154462,2.57535211 C35.2154462,3.37605634 35.9001593,4.03204225 36.730147,4.03204225 L36.730147,4.03204225 Z M26.2757208,7.25176056 L26.2757208,5.75492958 L23.8487813,5.75492958 L23.8487813,15.1088028 L26.2757208,15.1088028 L26.2757208,10.6975352 C26.2757208,9.01584507 27.2093233,7.90880282 28.3095644,7.90880282 C28.8479347,7.90880282 29.2837584,8.11478873 29.2837584,8.11478873 L29.801833,5.75492958 C29.801833,5.75492958 29.2420988,5.58908451 28.7240241,5.58908451 C27.2926426,5.58908451 26.753204,6.39190141 26.2757208,7.25176056 L26.2757208,7.25176056 Z M4.4161746,26.9102113 L2.83845032,26.9102113 L2.83845032,22.5221831 L4.56038095,22.5221831 C6.80038624,22.5221831 7.36012052,23.3609155 7.36012052,24.6549296 C7.36012052,25.9669014 6.82068195,26.9102113 4.4161746,26.9102113 L4.4161746,26.9102113 Z M3.83400823,20.4919014 L0.411510876,20.4919014 L0.411510876,34.1725352 L2.83845032,34.1725352 L2.83845032,28.9415493 L4.26983186,28.9415493 C7.87926337,28.9415493 9.82871958,27.831338 9.82871958,24.6760563 C9.82871958,21.3517606 7.65066961,20.4919014 3.83400823,20.4919014 L3.83400823,20.4919014 Z M47.982515,32.2024648 C46.2381523,32.2024648 45.0577966,31.2179577 45.0577966,29.4338028 C45.0577966,27.8144366 46.1964927,26.6429577 47.8575362,26.6429577 C49.4149647,26.6429577 50.6583439,27.6697183 50.6583439,29.3926056 C50.6583439,31.115493 49.4352604,32.2024648 47.982515,32.2024648 L47.982515,32.2024648 Z M50.6583439,25.9257042 C50.6583439,25.9257042 49.6008307,24.6549296 47.4014168,24.6549296 C44.8078389,24.6549296 42.6116296,26.6852113 42.6116296,29.4961268 C42.6116296,32.3049296 44.4147431,34.3362676 47.5050317,34.3362676 C48.6875238,34.3362676 50.0152904,33.8841549 50.6583439,33.1056338 L50.6583439,34.1725352 L53.0649877,34.1725352 L53.0649877,24.8197183 L50.6583439,24.8197183 L50.6583439,25.9257042 Z M16.5903951,24.4901408 C15.4281987,24.4901408 14.1837513,25.0035211 13.4990382,25.9257042 L13.4990382,19.8147887 L11.0934627,21.0443662 L11.0934627,34.1725352 L13.4990382,34.1725352 L13.4990382,29.4961268 C13.4990382,27.2799296 14.7648495,26.6028169 15.9473416,26.6028169 C17.0465144,26.6028169 17.9181617,27.0961268 17.9181617,28.6943662 L17.9181617,34.1725352 L20.3237372,34.1725352 L20.3237372,28.4080986 C20.3237372,25.5158451 18.6221023,24.4901408 16.5903951,24.4901408 L16.5903951,24.4901408 Z M115.621702,24.8176056 L112.861486,24.8176056 L109.918608,28.5728873 L109.918608,19.8147887 L107.488464,21.0242958 L107.488464,34.1725352 L109.918608,34.1725352 L109.918608,29.8647887 L112.902077,34.1725352 L115.867387,34.1725352 L112.155409,29.0640845 L115.621702,24.8176056 Z M84.4859489,32.468662 C82.7672228,32.468662 81.5185026,31.1566901 81.5185026,29.4961268 C81.5185026,27.831338 82.7672228,26.5225352 84.4859489,26.5225352 C86.2078795,26.5225352 87.4939865,27.831338 87.4939865,29.4961268 C87.4939865,31.1566901 86.2922669,32.468662 84.4859489,32.468662 L84.4859489,32.468662 Z M84.4859489,24.4922535 C81.4789794,24.4922535 79.0317443,26.6429577 79.0317443,29.4961268 C79.0317443,32.468662 81.4586837,34.5010563 84.4859489,34.5010563 C87.55701,34.5010563 89.9850176,32.3672535 89.9850176,29.4961268 C89.9850176,26.5415493 87.5142822,24.4922535 84.4859489,24.4922535 L84.4859489,24.4922535 Z M73.9492716,24.6549296 C72.7678477,24.6549296 71.5041728,25.1070423 70.7575044,26.0080986 C70.3430447,25.1070423 69.0964609,24.6549296 67.9566966,24.6549296 C66.8553874,24.6549296 65.5500529,25.0035211 64.8236802,25.9669014 L64.8236802,24.8197183 L62.4384004,24.8197183 L62.4384004,34.1725352 L64.8439759,34.1725352 L64.8439759,29.4961268 C64.8439759,27.7933099 65.5500529,26.7475352 67.0850494,26.7475352 C68.1436308,26.7475352 68.7663886,27.3211268 68.7663886,28.5327465 L68.7663886,34.1725352 L71.1698277,34.1725352 L71.1698277,29.5161972 C71.1698277,27.7521127 71.9175644,26.7665493 73.3489459,26.7665493 C74.4684145,26.7665493 75.0933086,27.3422535 75.0933086,28.571831 L75.0933086,34.1725352 L77.4988842,34.1725352 L77.4988842,28.3246479 C77.4988842,25.8253521 76.4200071,24.6549296 73.9492716,24.6549296 L73.9492716,24.6549296 Z" id="Fill-1"></path>
                    </g>
                </g>
            </g>
        </g>
    </g>
</svg>