<svg width="80" height="112" viewBox="0 0 80 112" fill="none" xmlns="http://www.w3.org/2000/svg">
<g clip-path="url(#clip0)">
<path d="M39.8644 0C17.8653 0 0 18.0923 0 40H5.31525C5.31525 20.9977 20.766 5.33333 39.8644 5.33333C59.2429 5.33333 74.4136 17.706 74.4136 36.7083C74.4136 47.3015 69.7938 53.1079 63.4093 60.5833C57.0248 68.0588 49.015 76.9023 43.9754 92.25L43.9339 92.2917V92.375C41.6286 100.602 34.0606 106.667 24.9983 106.667C14.0939 106.667 5.31525 97.9037 5.31525 87.0833H0C0 100.809 11.2442 112 24.9983 112C36.3824 112 46.0133 104.357 49 93.9167C49.0122 93.874 49.0296 93.8343 49.0415 93.7917C53.7515 79.5365 60.9871 71.5939 67.4373 64.0417C73.9078 56.467 79.7288 48.9305 79.7288 36.7083C79.7288 14.8006 61.5834 0 39.8644 0ZM39.8644 16C26.686 16 15.9458 26.7767 15.9458 40C15.9458 48.2366 20.2663 55.3476 26.5763 59.6667V59.75C19.9999 62.968 14.6169 68.9543 14.6169 77.3333H19.9322C19.9322 70.6308 24.2879 66.1767 30.2305 63.7917L31.8915 63.125V61.3333V58.4167V56.875L30.5627 56.125C25.0302 52.8843 21.261 46.8876 21.261 40C21.261 29.6591 29.5586 21.3333 39.8644 21.3333C50.1703 21.3333 58.4678 29.6591 58.4678 40H63.7831C63.7831 26.7767 53.0428 16 39.8644 16Z" fill="#333333"/>
</g>
<defs>
<clipPath id="clip0">
<rect width="79.7288" height="112" fill="white"/>
</clipPath>
</defs>
</svg>
