<svg width="112" height="112" viewBox="0 0 112 112" fill="none" xmlns="http://www.w3.org/2000/svg">
<path d="M94.4204 72.4659C93.41 72.4659 92.5909 73.2851 92.5909 74.2955V86.3449L86.0301 79.7841C85.3158 79.0697 84.1575 79.0697 83.4431 79.7841C82.7288 80.4985 82.7288 81.6567 83.4431 82.3711L92.5909 91.5188V109.057C92.5909 110.067 93.41 110.886 94.4204 110.886C95.4309 110.886 96.25 110.067 96.25 109.057V91.5188L105.398 82.3711C106.112 81.6567 106.112 80.4985 105.398 79.7841C104.683 79.0698 103.525 79.0697 102.811 79.7841L96.25 86.3449V74.2955C96.25 73.2851 95.4309 72.4659 94.4204 72.4659Z" fill="black"/>
<path d="M76.125 87.1023C76.125 88.1127 76.9441 88.9318 77.9545 88.9318C78.965 88.9318 79.7841 88.1127 79.7841 87.1023C79.7841 86.0918 78.965 85.2727 77.9545 85.2727C76.9441 85.2727 76.125 86.0918 76.125 87.1023Z" fill="black"/>
<path d="M81.6136 107.227C81.6136 108.238 82.4328 109.057 83.4432 109.057C84.4536 109.057 85.2727 108.238 85.2727 107.227C85.2727 106.217 84.4536 105.398 83.4432 105.398C82.4328 105.398 81.6136 106.217 81.6136 107.227Z" fill="black"/>
<path d="M107.227 90.7614C107.227 91.7719 108.046 92.591 109.057 92.591C110.067 92.591 110.886 91.7719 110.886 90.7614C110.886 89.751 110.067 88.9319 109.057 88.9319C108.046 88.9319 107.227 89.751 107.227 90.7614Z" fill="black"/>
<path d="M99.9091 101.739C99.9091 102.749 100.728 103.568 101.739 103.568C102.749 103.568 103.568 102.749 103.568 101.739C103.568 100.728 102.749 99.9091 101.739 99.9091C100.728 99.9091 99.9091 100.728 99.9091 101.739Z" fill="black"/>
<path d="M107.227 109.057C107.227 110.067 108.046 110.886 109.057 110.886C110.067 110.886 110.886 110.067 110.886 109.057C110.886 108.046 110.067 107.227 109.057 107.227C108.046 107.227 107.227 108.046 107.227 109.057Z" fill="black"/>
<path d="M83.4431 96.25C83.4431 97.2604 84.2622 98.0795 85.2727 98.0795C86.2831 98.0795 87.1022 97.2604 87.1022 96.25C87.1022 95.2395 86.2831 94.4204 85.2727 94.4204C84.2622 94.4204 83.4431 95.2395 83.4431 96.25Z" fill="black"/>
<path d="M8.31818 86.797C9.571 86.7938 10.8057 86.4975 11.9236 85.9319L19.2955 94.7782V108.752C19.2955 109.762 20.1146 110.581 21.125 110.581C22.1354 110.581 22.9545 109.762 22.9545 108.752V94.7782L30.3264 85.9319C31.4443 86.4975 32.679 86.7938 33.9318 86.797C35.749 86.908 37.5366 86.2979 38.9067 85.0991C40.2768 83.9002 41.1188 82.2094 41.25 80.3936C41.1188 78.5777 40.2768 76.8869 38.9067 75.6881C37.5366 74.4892 35.749 73.8791 33.9318 73.9902C32.1147 73.8791 30.327 74.4892 28.9569 75.6881C27.5868 76.8869 26.7448 78.5777 26.6136 80.3936C26.6268 81.5045 26.9623 82.5876 27.5794 83.5114L22.9545 89.0618V75.5923C24.434 75.3375 25.783 74.5875 26.7802 73.4653C27.7775 72.3432 28.3639 70.9154 28.4432 69.4163C28.312 67.6005 27.47 65.9096 26.0999 64.7108C24.7298 63.512 22.9422 62.9018 21.125 63.0129C19.3078 62.9018 17.5202 63.512 16.1501 64.7108C14.78 65.9096 13.938 67.6005 13.8068 69.4163C13.8861 70.9154 14.4725 72.3432 15.4698 73.4653C16.467 74.5875 17.816 75.3375 19.2955 75.5923V89.0618L14.6706 83.5114C15.2877 82.5876 15.6232 81.5045 15.6364 80.3936C15.5052 78.5777 14.6632 76.8869 13.2931 75.6881C11.923 74.4892 10.1353 73.8791 8.31818 73.9902C6.50102 73.8791 4.71339 74.4892 3.34328 75.6881C1.97318 76.8869 1.13116 78.5777 1 80.3936C1.13116 82.2094 1.97318 83.9002 3.34328 85.0991C4.71339 86.2979 6.50102 86.908 8.31818 86.797ZM33.9318 77.6492C35.915 77.6492 37.5909 78.9061 37.5909 80.3936C37.5909 81.881 35.915 83.1379 33.9318 83.1379C31.9486 83.1379 30.2727 81.881 30.2727 80.3936C30.2727 78.9061 31.9486 77.6492 33.9318 77.6492ZM17.4659 69.4163C17.4659 67.9289 19.1418 66.672 21.125 66.672C23.1082 66.672 24.7841 67.9289 24.7841 69.4163C24.7841 70.9037 23.1082 72.1606 21.125 72.1606C19.1418 72.1606 17.4659 70.9037 17.4659 69.4163ZM8.31818 77.6492C10.3014 77.6492 11.9773 78.9061 11.9773 80.3936C11.9773 81.881 10.3014 83.1379 8.31818 83.1379C6.33495 83.1379 4.65909 81.881 4.65909 80.3936C4.65909 78.9061 6.33495 77.6492 8.31818 77.6492Z" fill="black"/>
<path d="M8.43176 56C8.43213 57.2963 8.48437 58.5919 8.58831 59.8835C8.66937 60.891 9.58332 61.608 10.587 61.4886C11.5903 61.3692 12.3029 60.4593 12.2248 59.452C12.1357 58.3037 12.091 57.1522 12.0909 56C12.0643 49.1781 13.6399 42.4453 16.6906 36.3436C19.4671 30.7905 23.3949 25.9013 28.2044 21.9976C28.9916 21.3587 29.1606 20.2106 28.5519 19.3999C27.9469 18.5943 26.8021 18.4265 26.0176 19.0586C20.7477 23.3051 16.4467 28.6401 13.4139 34.7064C10.1093 41.3164 8.4028 48.61 8.43176 56Z" fill="black"/>
<path d="M32.9474 93.3753C32.0879 92.8456 30.9535 93.0617 30.3876 93.8978C29.8207 94.7353 30.0391 95.8771 30.8983 96.4104C37.7839 100.684 45.6561 103.134 53.7712 103.516C61.8863 103.897 69.9535 102.195 77.2095 98.5863C78.115 98.1359 78.4393 97.0196 77.9534 96.1327C77.4684 95.2474 76.3594 94.9259 75.4541 95.3726C68.7883 98.6613 61.3874 100.21 53.9428 99.8606C46.4983 99.5108 39.2754 97.2745 32.9474 93.3753Z" fill="black"/>
<path d="M99.9091 56C99.912 59.5636 99.4812 63.1119 98.6279 66.5671C98.3858 67.5476 98.9381 68.5622 99.9075 68.8457C100.878 69.1296 101.898 68.573 102.144 67.5921C104.339 58.8181 103.994 49.5865 101.128 40.9814C98.2624 32.3742 93.0027 24.7768 85.9832 19.0698C85.2012 18.434 84.0547 18.5991 83.4492 19.4049C82.8418 20.2134 83.0102 21.3586 83.7952 21.996C88.6053 25.9007 92.5333 30.7909 95.3099 36.3451C98.36 42.4465 99.9353 49.1787 99.9091 56Z" fill="black"/>
<path d="M43.4968 8.21922C38.0225 9.18224 34.0454 12.9387 34.0454 17.3509C34.0856 18.7168 34.4558 20.0527 35.1244 21.2445C35.793 22.4363 36.7402 23.4485 37.885 24.1947C37.0843 25.4255 36.6529 26.8599 36.6415 28.3281C36.6415 33.4987 42.1229 37.7046 48.8587 37.7046C50.6708 37.7087 52.4694 37.3909 54.1704 36.766V57.8296C54.1704 58.84 54.9895 59.6591 56 59.6591C57.0104 59.6591 57.8295 58.84 57.8295 57.8296V37.1705C59.1383 37.5218 60.4872 37.7014 61.8424 37.7046C68.5781 37.7046 74.0596 33.4987 74.0596 28.3281C74.0577 27.0986 73.7553 25.8881 73.1787 24.8021C74.5645 24.0958 75.7373 23.0333 76.5766 21.7238C77.4159 20.4143 77.8915 18.905 77.9545 17.3509C77.9545 12.5563 73.2413 8.59084 67.1488 8.04144C65.7498 4.00091 60.9883 1.11365 55.3514 1.11365C49.6162 1.11365 44.8119 4.0813 43.4968 8.21922ZM46.8237 10.0711C47.1614 7.09992 50.9062 4.77274 55.3514 4.77274C59.7662 4.77274 63.5093 7.08201 63.8756 10.0309C63.9407 10.4775 64.1649 10.8856 64.507 11.18C64.8491 11.4745 65.2859 11.6355 65.7373 11.6335C70.3755 11.6335 74.2954 14.2519 74.2954 17.3509C74.2954 19.4189 72.5695 21.3387 69.793 22.3625C69.5093 22.4669 69.2558 22.6399 69.0553 22.8663C68.8549 23.0926 68.7136 23.3651 68.6442 23.6593C68.5749 23.9536 68.5795 24.2605 68.6577 24.5525C68.736 24.8445 68.8854 25.1126 69.0926 25.3328C69.8932 26.1289 70.3607 27.1998 70.4005 28.3281C70.4005 31.4271 66.4805 34.0455 61.8424 34.0455C60.4739 34.0453 59.116 33.8067 57.8295 33.3403V29.3144L63.3181 23.8257C64.0325 23.1114 64.0325 21.9531 63.3182 21.2387C62.6038 20.5243 61.4455 20.5243 60.7311 21.2387L57.8295 24.1402V17.5796C57.8295 16.5691 57.0104 15.75 56 15.75C54.9895 15.75 54.1704 16.5691 54.1704 17.5796V24.1402L51.2688 21.2386C50.5544 20.5242 49.3961 20.5242 48.6817 21.2386C47.9674 21.953 47.9674 23.1112 48.6818 23.8256L54.1704 29.3144V32.76C52.5318 33.617 50.7078 34.0584 48.8587 34.0455C44.2205 34.0455 40.3005 31.4271 40.3005 28.3281C40.3299 27.6987 40.4882 27.0821 40.7657 26.5164C41.0433 25.9508 41.4341 25.4482 41.9139 25.0398C42.1325 24.8352 42.2977 24.5802 42.3949 24.2971C42.4921 24.0139 42.5184 23.7112 42.4715 23.4155C42.4246 23.1198 42.3059 22.8402 42.1258 22.601C41.9458 22.3618 41.7098 22.1704 41.4386 22.0435C40.4346 21.6971 39.55 21.0717 38.8887 20.2406C38.2273 19.4095 37.8165 18.4071 37.7045 17.3509C37.7045 14.5413 40.9812 12.0534 45.1656 11.6871C45.5861 11.6506 45.9809 11.4697 46.2832 11.1751C46.5854 10.8806 46.7764 10.4905 46.8237 10.0711Z" fill="black"/>
</svg>
