<svg width="100" height="99" viewBox="0 0 100 99" fill="none" xmlns="http://www.w3.org/2000/svg">
<path d="M20.5031 11.4698C20.2767 11.2424 20.0039 11.0672 19.7034 10.9564L8.12449 6.68562L12.375 18.3199C12.4853 18.6218 12.6596 18.8959 12.886 19.1233L39.661 46.0263L47.2781 38.3728L20.5031 11.4698ZM51.9575 39.94L41.2208 50.728C40.3594 51.5936 38.9627 51.5936 38.1012 50.728L9.76637 22.2578C9.08741 21.5756 8.56434 20.7531 8.23345 19.8474L2.34102 3.71897C1.69336 1.94623 3.40763 0.223773 5.17194 0.874525L21.2237 6.7951C22.1251 7.12757 22.9437 7.65314 23.6227 8.33534L51.9575 36.8055C52.819 37.6711 52.819 39.0744 51.9575 39.94ZM53.1792 59.609L85.5245 92.1088C86.386 92.9744 87.7827 92.9744 88.6441 92.1088L93.1416 87.5898C94.0031 86.7243 94.0031 85.3209 93.1416 84.4553L60.7963 51.9556L53.1792 59.609ZM62.3561 47.2538L96.2612 81.3209C98.8456 83.9175 98.8456 88.1276 96.2612 90.7243L91.7637 95.2433C89.1794 97.84 84.9893 97.84 82.4049 95.2433L48.4998 61.1763C47.6384 60.3107 47.6384 58.9074 48.4998 58.0418L59.2365 47.2538C60.098 46.3883 61.4947 46.3883 62.3561 47.2538Z" fill="#333333"/>
<path d="M32.1258 89.1216C36.4362 84.7906 37.7681 78.3883 35.6852 72.7446C35.3854 71.9325 35.584 71.0192 36.1936 70.4067L71.0854 35.3483C71.695 34.7358 72.6039 34.5362 73.4122 34.8374C79.029 36.9303 85.4009 35.5921 89.7114 31.261C94.0106 26.9413 95.3043 20.6048 93.3416 15.0755L84.512 23.9472C81.9277 26.5439 77.7376 26.5439 75.1533 23.9472C72.5689 21.3505 72.5689 17.1405 75.1533 14.5438L83.9829 5.67199C78.4798 3.69991 72.1735 4.99986 67.8742 9.31961C63.5638 13.6506 62.2319 20.053 64.3148 25.6966C64.6146 26.5088 64.416 27.422 63.8064 28.0345L28.9146 63.0929C28.305 63.7054 27.3961 63.905 26.5878 63.6038C20.971 61.511 14.5991 62.8492 10.2886 67.1802C5.98943 71.5 4.69566 77.8365 6.65837 83.3658L15.488 74.494C18.0723 71.8973 22.2624 71.8973 24.8467 74.494C27.4311 77.0907 27.4311 81.3008 24.8467 83.8975L16.0171 92.7693C21.5202 94.7413 27.8265 93.4414 32.1258 89.1216ZM35.2454 92.2561C28.8026 98.7296 18.8571 99.9283 11.1198 95.3368C9.87869 94.6003 9.66255 92.8852 10.6818 91.8611L21.7271 80.763C22.5886 79.8974 22.5886 78.4941 21.7271 77.6285C20.8657 76.763 19.469 76.763 18.6076 77.6285L7.56218 88.7266C6.54296 89.7507 4.83604 89.5335 4.10303 88.2865C-0.466669 80.5123 0.726308 70.5193 7.16906 64.0457C12.3629 58.8271 19.887 56.9883 26.7549 58.994L59.7269 25.8645C57.7308 18.9638 59.5608 11.4038 64.7546 6.18512C71.1974 -0.288401 81.1429 -1.48708 88.8802 3.10445C90.1213 3.84096 90.3375 5.55603 89.3182 6.58012L78.2729 17.6782C77.4114 18.5438 77.4114 19.9472 78.2729 20.8127C79.1343 21.6783 80.531 21.6783 81.3924 20.8127L92.4378 9.71461C93.457 8.69052 95.164 8.90769 95.897 10.1547C100.467 17.929 99.2737 27.922 92.8309 34.3955C87.6371 39.6142 80.113 41.4529 73.2451 39.4473L40.2731 72.5767C42.2692 79.4774 40.4392 87.0374 35.2454 92.2561Z" fill="#333333"/>
</svg>
