<svg width="108" height="104" viewBox="0 0 108 104" fill="none" xmlns="http://www.w3.org/2000/svg">
<path d="M24.024 104C10.776 104 0 93.1813 0 79.8939C0 66.5339 10.776 55.6667 24.024 55.6667C37.2 55.6667 47.928 66.5339 47.928 79.8939C47.928 93.1813 37.212 104 24.024 104ZM24.024 59.8539C13.068 59.8539 4.164 68.8452 4.164 79.8818C4.164 90.8578 13.068 99.7887 24.024 99.7887C34.908 99.7887 43.764 90.8578 43.764 79.8818C43.764 68.8452 34.908 59.8539 24.024 59.8539Z" fill="black"/>
<path d="M91.08 104C81.816 104 74.292 96.4124 74.292 87.07C74.292 77.6672 81.828 70.007 91.08 70.007C100.404 70.007 108 77.6551 108 87.07C108 96.4003 100.416 104 91.08 104ZM91.08 74.1941C84.12 74.1941 78.456 79.9665 78.456 87.0579C78.456 94.0768 84.12 99.7887 91.08 99.7887C98.112 99.7887 103.824 94.0768 103.824 87.0579C103.836 79.9665 98.112 74.1941 91.08 74.1941Z" fill="black"/>
<path d="M52.344 81.9874C51.192 81.9874 50.256 81.0556 50.256 79.8817C50.256 65.2268 38.484 53.3069 24.024 53.3069C22.872 53.3069 21.936 52.3751 21.936 51.2012C21.936 50.0274 22.872 49.0956 24.024 49.0956C40.788 49.0956 54.42 62.9034 54.42 79.8696C54.432 81.0556 53.496 81.9874 52.344 81.9874Z" fill="black"/>
<path d="M70.728 81.7454C70.5 81.7454 70.26 81.697 70.032 81.6244C68.952 81.2372 68.388 80.027 68.772 78.9379C72.132 69.4503 81.096 63.085 91.08 63.085C92.232 63.085 93.168 64.0168 93.168 65.1906C93.168 66.3645 92.232 67.2963 91.08 67.2963C82.848 67.2963 75.468 72.5483 72.696 80.3659C72.384 81.213 71.592 81.7454 70.728 81.7454Z" fill="black"/>
<path d="M57.612 63.811C56.556 63.811 55.656 63.0002 55.536 61.9231L51.804 24.7474H12.264V51.2013C12.264 52.363 11.328 53.3069 10.176 53.3069C9.02401 53.3069 8.08801 52.3751 8.08801 51.2013V22.6418C8.08801 21.48 9.02401 20.5361 10.176 20.5361H53.688C54.756 20.5361 55.656 21.3469 55.764 22.424L59.688 61.4875C59.808 62.6371 58.968 63.6779 57.828 63.7868C57.756 63.811 57.684 63.811 57.612 63.811Z" fill="black"/>
<path d="M4.416 61.5964H2.088C0.936 61.5964 0 60.6525 0 59.4907V51.2012C0 50.0395 0.936 49.0956 2.088 49.0956H24.036C25.188 49.0956 26.124 50.0274 26.124 51.2012C26.124 52.3751 25.188 53.3069 24.036 53.3069H4.164V57.3972H4.404C5.556 57.3972 6.492 58.329 6.492 59.5028C6.492 60.6525 5.568 61.5964 4.416 61.5964Z" fill="black"/>
<path d="M77.472 94.8513H49.524C48.372 94.8513 47.436 93.9195 47.436 92.7457C47.436 91.5839 48.372 90.64 49.524 90.64H77.472C78.624 90.64 79.56 91.5718 79.56 92.7457C79.56 93.9074 78.624 94.8513 77.472 94.8513Z" fill="black"/>
<path d="M56.508 53.3069H43.764C42.612 53.3069 41.676 52.3751 41.676 51.2012C41.676 50.0274 42.612 49.0956 43.764 49.0956H56.508C57.66 49.0956 58.596 50.0274 58.596 51.2012C58.596 52.3751 57.66 53.3069 56.508 53.3069Z" fill="black"/>
<path d="M25.9921 46.8811C24.8401 46.8811 23.9041 45.9493 23.9041 44.7755V22.654C23.9041 21.4923 24.8401 20.5483 25.9921 20.5483C27.1441 20.5483 28.0801 21.4802 28.0801 22.654V44.7755C28.0681 45.9372 27.1441 46.8811 25.9921 46.8811Z" fill="black"/>
<path d="M101.508 77.4131C100.356 77.4131 99.4199 76.4813 99.4199 75.3074V61.7175C99.4199 57.6151 95.9879 54.1299 91.2719 53.4159L55.7399 48.4785C54.5999 48.3212 53.8079 47.2562 53.9639 46.1066C54.1199 44.957 55.1759 44.1704 56.3159 44.3035L91.8599 49.253C98.6639 50.2695 103.584 55.5215 103.584 61.7175V75.3195C103.584 76.4813 102.648 77.4131 101.508 77.4131Z" fill="black"/>
<path d="M72.696 77.5341H51.972C50.82 77.5341 49.884 76.6023 49.884 75.4284C49.884 74.2546 50.82 73.3228 51.972 73.3228H72.684C73.836 73.3228 74.772 74.2546 74.772 75.4284C74.772 76.6023 73.848 77.5341 72.696 77.5341Z" fill="black"/>
<path d="M82.128 51.8306C80.976 51.8306 80.04 50.8988 80.04 49.725V38.1075C80.04 37.1152 78.204 36.7038 78.204 38.1075V42.4399C78.204 43.6016 77.268 44.5455 76.116 44.5455C74.964 44.5455 74.028 43.6137 74.028 42.4399V38.1075C74.028 35.2516 76.284 32.916 79.056 32.916C81.948 32.916 84.204 35.1911 84.204 38.1075V49.725C84.216 50.8867 83.28 51.8306 82.128 51.8306Z" fill="black"/>
<path d="M24.024 95.4684C15.444 95.4684 8.45996 88.4859 8.45996 79.8938C8.45996 71.2413 15.444 64.1982 24.024 64.1982C32.544 64.1982 39.468 71.2413 39.468 79.8938C39.48 88.4738 32.544 95.4684 24.024 95.4684ZM24.024 68.3853C17.736 68.3853 12.624 73.5406 12.624 79.8817C12.624 86.1503 17.736 91.2571 24.024 91.2571C30.24 91.2571 35.304 86.1503 35.304 79.8817C35.304 73.5527 30.252 68.3853 24.024 68.3853Z" fill="black"/>
<path d="M91.08 93.1087C87.708 93.1087 85.08 90.4464 85.08 87.058C85.08 83.6454 87.78 80.8741 91.08 80.8741C92.232 80.8741 93.168 81.806 93.168 82.9798C93.168 84.1415 92.232 85.0854 91.08 85.0854C90.072 85.0854 89.244 85.981 89.244 87.0701C89.244 88.1229 90.036 88.9216 91.08 88.9216C92.124 88.9216 92.916 88.1229 92.916 87.0701C92.916 85.9083 93.852 84.9644 95.004 84.9644C96.156 84.9644 97.092 85.8962 97.092 87.0701C97.092 90.4585 94.452 93.1087 91.08 93.1087Z" fill="black"/>
<path d="M24.024 85.9447C20.7 85.9447 17.892 83.1734 17.892 79.8939C17.892 76.4813 20.64 73.7101 24.024 73.7101C25.176 73.7101 26.112 74.6419 26.112 75.8157C26.112 76.9896 25.176 77.9214 24.024 77.9214C22.956 77.9214 22.068 78.829 22.068 79.906C22.068 80.8741 23.004 81.7576 24.024 81.7576C24.948 81.7576 25.86 80.8378 25.86 79.906C25.86 78.7443 26.796 77.8004 27.948 77.8004C29.1 77.8004 30.036 78.7322 30.036 79.906C30.036 83.1734 27.288 85.9447 24.024 85.9447Z" fill="black"/>
<path d="M79.068 37.1152C77.916 37.1152 76.98 36.1834 76.98 35.0096V24.6265C76.98 23.4648 77.916 22.5209 79.068 22.5209C80.22 22.5209 81.156 23.4527 81.156 24.6265V35.0096C81.156 36.1713 80.22 37.1152 79.068 37.1152Z" fill="black"/>
<path d="M74.16 20.3063C73.632 20.3063 73.092 20.1006 72.684 19.6891C71.868 18.8662 71.868 17.5351 72.684 16.7122C76.152 13.2148 81.912 13.1906 85.524 16.6879C86.352 17.4866 86.388 18.8178 85.584 19.6528C84.78 20.4878 83.472 20.5241 82.644 19.7133C80.652 17.8013 77.52 17.7892 75.624 19.6891C75.228 20.1006 74.7 20.3063 74.16 20.3063Z" fill="black"/>
<path d="M69.264 15.3568C68.736 15.3568 68.208 15.1631 67.812 14.7638C66.984 13.953 66.972 12.6218 67.776 11.7868C70.752 8.71305 74.748 7.00675 78.996 6.98254C83.436 7.01885 87.384 8.66465 90.468 11.7747C91.284 12.5976 91.284 13.9288 90.468 14.7517C89.652 15.5746 88.332 15.5746 87.516 14.7517C85.224 12.4403 82.068 11.2423 79.008 11.1939C75.876 11.206 72.936 12.4766 70.74 14.7396C70.344 15.151 69.804 15.3568 69.264 15.3568Z" fill="black"/>
<path d="M64.2359 10.4073C63.6959 10.4073 63.1679 10.2015 62.7599 9.79009C61.9439 8.96719 61.9439 7.63603 62.7599 6.81313C67.1279 2.42029 72.9239 0 79.0679 0C85.2119 0 91.008 2.42029 95.376 6.82523C96.192 7.64813 96.192 8.97929 95.376 9.80219C94.56 10.6251 93.2399 10.6251 92.4239 9.80219C88.8479 6.19595 84.1079 4.21131 79.0679 4.21131C74.0279 4.21131 69.2879 6.18385 65.7119 9.80219C65.3039 10.2136 64.7639 10.4073 64.2359 10.4073Z" fill="black"/>
</svg>
