<svg width="124" height="122" viewBox="0 0 124 122" fill="none" xmlns="http://www.w3.org/2000/svg">
<path d="M12.03 61.17C11.49 61.17 10.96 60.95 10.59 60.56L0.560005 50.12C-0.179995 49.35 -0.179995 48.12 0.560005 47.35L16.76 30.49C17.51 29.71 18.89 29.7 19.64 30.49L29.67 40.92C30.41 41.69 30.41 42.92 29.67 43.69L13.47 60.55C13.09 60.94 12.57 61.17 12.03 61.17ZM4.77 48.74L12.02 56.29L25.45 42.32L18.2 34.77L4.77 48.74Z" fill="black"/>
<path d="M49.2899 22.39C48.7899 22.39 48.2899 22.2 47.9099 21.83C47.1099 21.06 47.0899 19.8 47.8499 19L48.5799 18.24C49.3399 17.44 50.6099 17.42 51.4099 18.18C52.2099 18.95 52.2299 20.21 51.4699 21.01L50.7399 21.77C50.3399 22.19 49.8199 22.39 49.2899 22.39Z" fill="black"/>
<path d="M40.74 31.29C40.2 31.29 39.68 31.07 39.3 30.68L29.28 20.24C28.54 19.47 28.54 18.24 29.28 17.47L45.48 0.61C45.85 0.22 46.38 0 46.92 0C47.46 0 47.98 0.22 48.36 0.61L58.39 11.04C59.14 11.82 59.13 13.05 58.38 13.82L55.58 16.7C54.81 17.49 53.54 17.51 52.75 16.74C51.96 15.97 51.94 14.7 52.71 13.91L54.16 12.42L46.92 4.88L33.49 18.86L40.74 26.41L43.77 23.26C44.53 22.46 45.8 22.44 46.6 23.2C47.4 23.97 47.42 25.23 46.66 26.03L42.19 30.68C41.81 31.07 41.29 31.29 40.74 31.29Z" fill="black"/>
<path d="M29.77 45.92C29.23 45.92 28.7 45.7 28.33 45.31L15.22 31.66C14.48 30.89 14.48 29.66 15.22 28.89L27.74 15.87C28.49 15.09 29.87 15.08 30.62 15.87L43.73 29.51C44.47 30.28 44.47 31.51 43.73 32.28L31.21 45.3C30.83 45.69 30.31 45.92 29.77 45.92ZM19.43 30.27L29.77 41.03L39.51 30.89L29.17 20.14L19.43 30.27Z" fill="black"/>
<path d="M20.2 52.67C19.68 52.67 19.17 52.47 18.78 52.07L14.55 47.79C13.77 47.01 13.78 45.74 14.57 44.96C15.35 44.18 16.62 44.19 17.4 44.98L21.63 49.26C22.41 50.04 22.4 51.31 21.61 52.09C21.22 52.48 20.71 52.67 20.2 52.67Z" fill="black"/>
<path d="M43.83 17.64C43.31 17.64 42.8 17.44 42.41 17.05L37.32 11.9C36.54 11.12 36.55 9.85002 37.34 9.07002C38.12 8.30002 39.39 8.30002 40.17 9.09002L45.26 14.24C46.04 15.02 46.03 16.29 45.24 17.07C44.85 17.45 44.34 17.64 43.83 17.64Z" fill="black"/>
<path d="M29.47 33.82C31.2373 33.82 32.67 32.3694 32.67 30.58C32.67 28.7906 31.2373 27.34 29.47 27.34C27.7027 27.34 26.27 28.7906 26.27 30.58C26.27 32.3694 27.7027 33.82 29.47 33.82Z" fill="black"/>
<path d="M40.26 43.57C39.73 43.57 39.21 43.36 38.82 42.96L34.7 38.68C33.93 37.88 33.96 36.62 34.76 35.85C35.56 35.08 36.82 35.11 37.59 35.91L41.71 40.19C42.48 40.99 42.45 42.25 41.65 43.02C41.26 43.38 40.76 43.57 40.26 43.57Z" fill="black"/>
<path d="M53.58 60.73C52.09 60.73 50.7 60.15 49.64 59.09C47.48 56.92 47.48 53.39 49.64 51.21C50.69 50.16 52.09 49.58 53.57 49.58C55.06 49.58 56.45 50.16 57.5 51.21C59.66 53.38 59.66 56.91 57.5 59.09C56.47 60.15 55.07 60.73 53.58 60.73ZM53.58 53.58C53.16 53.58 52.77 53.74 52.48 54.04C51.87 54.65 51.87 55.65 52.48 56.27C52.77 56.57 53.17 56.73 53.58 56.73C54 56.73 54.39 56.57 54.68 56.27C55.29 55.66 55.29 54.66 54.68 54.04C54.39 53.75 54 53.58 53.58 53.58Z" fill="black"/>
<path d="M39.14 57.52C38.6 57.52 38.08 57.3 37.7 56.91C34.05 53.11 34.05 46.94 37.7 43.15L41.46 39.24C43.25 37.38 45.63 36.36 48.18 36.36C50.73 36.36 53.12 37.38 54.9 39.24C55.64 40.01 55.64 41.24 54.9 42.01L40.58 56.91C40.21 57.3 39.69 57.52 39.14 57.52ZM48.18 40.35C46.73 40.35 45.36 40.94 44.34 42L40.58 45.91C38.91 47.65 38.52 50.22 39.41 52.35L50.45 40.86C49.75 40.53 48.98 40.35 48.18 40.35Z" fill="black"/>
<path d="M50.52 53.92C50 53.92 49.47 53.72 49.08 53.31L45.18 49.27C44.41 48.48 44.44 47.21 45.23 46.44C46.02 45.67 47.29 45.69 48.06 46.49L51.96 50.53C52.73 51.32 52.7 52.59 51.91 53.36C51.52 53.74 51.02 53.92 50.52 53.92Z" fill="black"/>
<path d="M77.3801 122H46.6801C45.5801 122 44.6801 121.1 44.6801 120V119.88C44.6801 119.76 44.6901 119.63 44.7101 119.51C46.6501 109.32 56.09 102.19 65.34 103.94C72.42 105.28 78.18 111.76 79.34 119.71C79.4201 120.28 79.2501 120.87 78.8701 121.31C78.4901 121.75 77.9601 122 77.3801 122ZM49.2401 118H74.8901C73.3501 112.79 69.3601 108.77 64.6101 107.87C58.1701 106.66 51.5801 111.17 49.2401 118Z" fill="black"/>
<path d="M60.03 107.72C59.97 107.72 59.91 107.72 59.86 107.71C58.76 107.61 57.94 106.65 58.04 105.55C58.6 99.0599 57.81 92.7299 55.7 86.7399C55.33 85.6999 55.88 84.5599 56.92 84.1899C57.96 83.8299 59.1 84.3699 59.47 85.4099C61.77 91.9399 62.63 98.8299 62.02 105.89C61.94 106.93 61.06 107.72 60.03 107.72Z" fill="black"/>
<path d="M59.76 97.63C59.58 97.63 59.4 97.61 59.22 97.55C58.16 97.25 57.54 96.15 57.84 95.08C58.01 94.47 59.02 91.29 61.88 88.95C62.73 88.25 64 88.38 64.69 89.24C65.39 90.1 65.26 91.35 64.4 92.05C62.39 93.69 61.71 96.06 61.68 96.16C61.44 97.05 60.63 97.63 59.76 97.63Z" fill="black"/>
<path d="M58.01 89.3899C57.73 89.3899 57.44 89.3299 57.18 89.2099C54.21 87.8499 51.63 85.7799 49.72 83.2199C45.12 77.0699 45.62 70.1099 46.05 67.3999C46.13 66.8699 46.43 66.3899 46.87 66.0799C47.31 65.7699 47.86 65.6499 48.39 65.7499C49.24 65.9099 56.81 67.4999 60.04 75.0199C62.66 81.1099 60.55 86.6599 59.84 88.2199C59.62 88.6999 59.22 89.0799 58.72 89.2599C58.49 89.3499 58.25 89.3899 58.01 89.3899ZM49.8 70.3499C49.74 73.0199 50.19 77.1699 52.92 80.8199C54 82.2599 55.35 83.5099 56.89 84.4999C57.37 82.5899 57.67 79.6499 56.36 76.5999C54.81 72.9899 51.83 71.1899 49.8 70.3499Z" fill="black"/>
<path d="M71.5801 97.2098C71.2601 97.2098 70.9401 97.1998 70.6201 97.1798C65.4401 96.8298 62.12 93.7898 60.93 92.4998C60.47 91.9998 60.2901 91.2998 60.4701 90.6398C60.6101 90.0998 60.79 89.5598 61 89.0398C62.55 85.2398 65.8201 82.5798 69.5101 82.0998C75.1101 81.3598 80.5701 85.7098 81.6901 91.7998C81.8201 92.4998 81.57 93.2098 81.03 93.6798C79.76 94.7698 76.3901 97.2098 71.5801 97.2098ZM64.6901 90.5798C65.8901 91.6198 67.99 92.9898 70.89 93.1898C73.84 93.3798 76.16 92.2398 77.46 91.3698C76.33 87.9598 73.2 85.6498 70.03 86.0698C67.75 86.3698 65.71 88.0898 64.7 90.5598C64.69 90.5598 64.6901 90.5698 64.6901 90.5798ZM62.85 89.7998H62.86H62.85Z" fill="black"/>
<path d="M59.02 114.9C58.08 114.9 57.25 114.24 57.06 113.28L56.84 112.15C56.63 111.07 57.33 110.01 58.42 109.8C59.51 109.59 60.55 110.29 60.77 111.38L60.99 112.51C61.2 113.59 60.5 114.65 59.41 114.86C59.27 114.89 59.14 114.9 59.02 114.9Z" fill="black"/>
<path d="M67.8701 116.93H66.7301C65.6301 116.93 64.7301 116.03 64.7301 114.93C64.7301 113.83 65.6301 112.93 66.7301 112.93H67.8701C68.9701 112.93 69.8701 113.83 69.8701 114.93C69.8701 116.03 68.9701 116.93 67.8701 116.93Z" fill="black"/>
<path d="M42.3499 122H11.6499C10.5499 122 9.6499 121.1 9.6499 120V119.38C9.6499 119.26 9.6599 119.13 9.6799 119.01C11.6199 108.82 21.0599 101.69 30.3099 103.44C37.3899 104.78 43.1499 111.26 44.3099 119.21C44.3199 119.31 44.3299 119.4 44.3299 119.5V120C44.3499 121.1 43.4499 122 42.3499 122ZM11.6499 119.38H11.6599H11.6499ZM14.0599 118H40.0099C38.5899 112.55 34.4899 108.3 29.5899 107.37C22.9899 106.13 16.2399 110.89 14.0599 118Z" fill="black"/>
<path d="M25.0099 107.22C24.9499 107.22 24.8899 107.22 24.8399 107.21C23.7399 107.11 22.9199 106.15 23.0199 105.05C23.5799 98.5599 22.7899 92.2299 20.6799 86.2399C20.3099 85.1999 20.8599 84.0599 21.8999 83.6899C22.9399 83.3299 24.0799 83.8699 24.4499 84.9099C26.7499 91.4399 27.6099 98.3299 26.9999 105.39C26.9099 106.43 26.0299 107.22 25.0099 107.22Z" fill="black"/>
<path d="M24.74 97.1299C24.56 97.1299 24.38 97.0999 24.2 97.0499C23.14 96.7499 22.52 95.6499 22.82 94.5799C22.99 93.9899 23.95 90.9399 26.66 88.6199C27.5 87.8999 28.76 87.9999 29.48 88.8399C30.2 89.6799 30.1 90.9399 29.26 91.6599C27.35 93.2899 26.69 95.5699 26.67 95.6599C26.41 96.5499 25.61 97.1299 24.74 97.1299Z" fill="black"/>
<path d="M22.9899 88.8899C22.7099 88.8899 22.4199 88.8299 22.1599 88.7099C19.1899 87.3499 16.6099 85.2799 14.6999 82.7199C10.1099 76.5799 10.5999 69.6099 11.0299 66.8999C11.1099 66.3699 11.4099 65.8899 11.8499 65.5799C12.2899 65.2699 12.8299 65.1499 13.3699 65.2399C14.2199 65.3899 21.7899 66.9699 25.0199 74.5099C27.6399 80.5999 25.5299 86.1499 24.8199 87.7099C24.5999 88.1899 24.1999 88.5699 23.6999 88.7499C23.4599 88.8499 23.2199 88.8899 22.9899 88.8899ZM14.7699 69.8499C14.7099 72.5299 15.1599 76.6699 17.8899 80.3299C18.9699 81.7699 20.3199 83.0199 21.8599 84.0099C22.3399 82.0999 22.6399 79.1599 21.3299 76.1099C19.7799 72.4799 16.8099 70.6899 14.7699 69.8499Z" fill="black"/>
<path d="M36.5599 96.7099C36.2499 96.7099 35.9299 96.6999 35.5999 96.6799C30.4199 96.3299 27.0999 93.2899 25.9099 91.9999C25.4499 91.4999 25.2699 90.7999 25.4399 90.1399C26.6299 85.5799 30.2599 82.1499 34.4899 81.5999C40.0899 80.8699 45.5499 85.2099 46.6699 91.2999C46.7999 91.9999 46.5499 92.7099 46.0099 93.1799C44.7299 94.2699 41.3599 96.7099 36.5599 96.7099ZM29.6599 90.0799C30.8599 91.1199 32.9599 92.4899 35.8599 92.6899C38.8099 92.8799 41.1299 91.7399 42.4299 90.8699C41.2999 87.4599 38.1699 85.1599 34.9999 85.5699C32.6999 85.8599 30.6599 87.6299 29.6599 90.0799Z" fill="black"/>
<path d="M25.15 104.4C24.09 104.4 23.21 103.57 23.15 102.51C23.07 101.03 22.27 99.73 21.06 99.12C20.07 98.62 19.68 97.42 20.18 96.43C20.68 95.44 21.88 95.05 22.87 95.55C25.35 96.81 26.99 99.39 27.15 102.3C27.21 103.4 26.36 104.35 25.26 104.41C25.22 104.4 25.19 104.4 25.15 104.4Z" fill="black"/>
<path d="M13.13 102.82C10.81 102.82 8.87996 102.29 7.54996 101.77C6.68996 101.43 6.16996 100.55 6.28996 99.63C6.77996 96.1 8.95996 93.17 11.96 91.99C16.17 90.33 21.15 92.34 23.54 96.67C24 97.51 23.81 98.55 23.08 99.17C21.55 100.45 18.99 102.1 15.46 102.64C14.65 102.76 13.87 102.82 13.13 102.82ZM10.69 98.55C11.84 98.8 13.26 98.93 14.85 98.68C16.53 98.42 17.91 97.83 18.99 97.18C17.46 95.63 15.26 94.98 13.43 95.7C12.22 96.18 11.25 97.22 10.69 98.55Z" fill="black"/>
<path d="M21.85 116.93H20.71C19.61 116.93 18.71 116.03 18.71 114.93C18.71 113.83 19.61 112.93 20.71 112.93H21.85C22.95 112.93 23.85 113.83 23.85 114.93C23.85 116.03 22.95 116.93 21.85 116.93Z" fill="black"/>
<path d="M29.62 113.32H28.48C27.38 113.32 26.48 112.42 26.48 111.32C26.48 110.22 27.38 109.32 28.48 109.32H29.62C30.72 109.32 31.62 110.22 31.62 111.32C31.62 112.42 30.73 113.32 29.62 113.32Z" fill="black"/>
<path d="M95.55 108.21C95.49 108.21 95.43 108.21 95.38 108.2C94.28 108.1 93.46 107.14 93.56 106.04C94.12 99.5499 93.33 93.2199 91.22 87.2299C90.85 86.1899 91.4 85.0499 92.44 84.6799C93.48 84.3199 94.62 84.8599 94.99 85.8999C97.29 92.4299 98.15 99.3199 97.54 106.38C97.45 107.43 96.57 108.21 95.55 108.21Z" fill="black"/>
<path d="M95.2799 98.13C95.0999 98.13 94.9199 98.1 94.7299 98.05C93.6899 97.76 93.0699 96.69 93.3399 95.64C93.4899 94.85 93.9299 92.66 97.4599 90.42C98.3899 89.83 99.6299 90.11 100.22 91.04C100.81 91.97 100.53 93.21 99.5999 93.8C97.5099 95.12 97.3299 96.05 97.2699 96.36C97.2399 96.49 97.2199 96.6 97.1999 96.68C96.9499 97.55 96.1499 98.13 95.2799 98.13Z" fill="black"/>
<path d="M93.53 89.8899C93.24 89.8899 92.96 89.8299 92.7 89.7099C89.73 88.3499 87.15 86.2799 85.24 83.7199C80.65 77.5799 81.14 70.6099 81.57 67.8999C81.65 67.3699 81.95 66.8899 82.39 66.5799C82.83 66.2699 83.38 66.1499 83.91 66.2399C84.76 66.3899 92.33 67.9699 95.56 75.5099C98.18 81.5999 96.07 87.1499 95.36 88.7099C95.14 89.1899 94.74 89.5699 94.24 89.7499C94 89.8499 93.76 89.8899 93.53 89.8899ZM85.31 70.8499C85.25 73.5299 85.7 77.6699 88.43 81.3299C89.51 82.7699 90.86 84.0199 92.4 85.0099C92.88 83.0999 93.18 80.1599 91.87 77.1099C90.32 73.4799 87.35 71.6899 85.31 70.8499Z" fill="black"/>
<path d="M107.1 97.71C106.79 97.71 106.46 97.7 106.14 97.68C100.96 97.33 97.6399 94.29 96.4499 93C95.9899 92.5 95.8099 91.8 95.9899 91.14C97.1799 86.58 100.81 83.15 105.04 82.6C110.64 81.86 116.1 86.21 117.22 92.3C117.35 93 117.1 93.71 116.56 94.18C115.27 95.27 111.9 97.71 107.1 97.71ZM100.2 91.08C101.4 92.12 103.51 93.49 106.4 93.69C109.35 93.88 111.67 92.74 112.97 91.87C111.84 88.46 108.71 86.16 105.54 86.57C103.24 86.86 101.2 88.63 100.2 91.08Z" fill="black"/>
<path d="M93.0899 116.48C92.6499 116.48 92.1999 116.33 91.8299 116.03L90.7199 115.13C89.8599 114.43 89.7399 113.17 90.4399 112.32C91.1399 111.46 92.3999 111.34 93.2499 112.04L94.3599 112.94C95.2199 113.64 95.3399 114.9 94.6399 115.75C94.2399 116.23 93.6699 116.48 93.0899 116.48Z" fill="black"/>
<path d="M101.94 115.8H100.8C99.7 115.8 98.8 114.9 98.8 113.8C98.8 112.7 99.7 111.8 100.8 111.8H101.94C103.04 111.8 103.94 112.7 103.94 113.8C103.94 114.9 103.04 115.8 101.94 115.8Z" fill="black"/>
<path d="M112.8 122H82.29C81.69 122 81.12 121.73 80.74 121.26C80.36 120.79 80.21 120.18 80.34 119.59C82.48 109.5 91.68 102.71 100.87 104.45C107.83 105.76 113.42 111.88 114.77 119.67C114.87 120.25 114.71 120.85 114.33 121.3C113.95 121.75 113.39 122 112.8 122ZM84.96 118H110.25C108.62 113 104.76 109.25 100.13 108.37C93.91 107.21 87.44 111.48 84.96 118Z" fill="black"/>
<path d="M122 122H2C0.9 122 0 121.1 0 120C0 118.9 0.9 118 2 118H122C123.1 118 124 118.9 124 120C124 121.1 123.1 122 122 122Z" fill="black"/>
</svg>
