<svg width="40" height="40" viewBox="0 0 40 40" fill="none" xmlns="http://www.w3.org/2000/svg">
<g id="OxBox">
<path id="Frame" fill-rule="evenodd" clip-rule="evenodd" d="M0 40H40V0H0V40ZM2.12262 37.8768H37.8767V2.12231H2.12262V37.8768Z" fill="white"/>
<g id="ox">
<path id="Fill 2" fill-rule="evenodd" clip-rule="evenodd" d="M9.28993 11.7512C9.28993 12.6844 9.55719 13.4385 10.0919 14.0172C10.6271 14.5955 11.3794 14.8836 12.3456 14.8836C13.3158 14.8836 14.0662 14.5955 14.6012 14.0172C15.1362 13.4385 15.4037 12.6844 15.4037 11.7512C15.4037 10.8165 15.1362 10.0598 14.6012 9.48314C14.0662 8.90721 13.3158 8.61694 12.3456 8.61694C11.3794 8.61694 10.6271 8.90721 10.0919 9.48314C9.55719 10.0598 9.28993 10.8165 9.28993 11.7512ZM5.4668 11.7508C5.4668 10.7642 5.64532 9.87264 6.00166 9.07638C6.35818 8.27622 6.84752 7.59225 7.46758 7.02428C8.08745 6.45595 8.81713 6.01638 9.65892 5.71371C10.5005 5.40697 11.3962 5.25342 12.3456 5.25342C13.2974 5.25342 14.193 5.40697 15.0325 5.71371C15.8743 6.01638 16.6042 6.45595 17.2262 7.02428C17.8439 7.59225 18.3331 8.27622 18.6896 9.07638C19.0463 9.87264 19.2247 10.7642 19.2247 11.7508C19.2247 12.7337 19.0463 13.6271 18.6896 14.4253C18.3331 15.2231 17.8439 15.9053 17.2262 16.4754C16.6042 17.0455 15.8743 17.481 15.0325 17.7876C14.193 18.0927 13.2974 18.2461 12.3456 18.2461C11.3962 18.2461 10.5005 18.0927 9.65892 17.7876C8.81713 17.481 8.08745 17.0455 7.46758 16.4754C6.84752 15.9053 6.35818 15.2231 6.00166 14.4253C5.64532 13.6271 5.4668 12.7337 5.4668 11.7508Z" fill="white"/>
<path id="Fill 4" fill-rule="evenodd" clip-rule="evenodd" d="M24.6873 27.5924L20.5595 21.835H25.0708L27.2602 25.1977L29.3748 21.835H33.6293L29.6031 27.5924L34.3669 34.2161H29.8601L27.1583 30.0904L24.254 34.2161H19.7969L24.6873 27.5924Z" fill="white"/>
</g>
</g>
</svg>
