<svg width="524" height="524" viewBox="0 0 524 524" fill="none" xmlns="http://www.w3.org/2000/svg">
<g id="OxBox-Tilted">
<path id="Frame" fill-rule="evenodd" clip-rule="evenodd" d="M98.5282 523.287L523.287 424.758L424.759 -3.32595e-06L0 98.5282L98.5282 523.287ZM115.839 495.514L495.51 407.445L407.44 27.774L27.7696 115.843L115.839 495.514Z" fill="#F2C94C"/>
<g id="ox">
<path id="Fill 2" fill-rule="evenodd" clip-rule="evenodd" d="M127.594 200.427C129.893 210.336 134.588 217.686 141.691 222.515C148.799 227.337 157.498 228.544 167.757 226.164C178.06 223.774 185.319 218.866 189.576 211.408C193.832 203.944 194.814 195.277 192.515 185.368C190.213 175.441 185.509 168.064 178.407 163.258C171.307 158.46 162.623 157.226 152.321 159.616C142.062 161.996 134.787 166.931 130.523 174.366C126.265 181.806 125.291 190.501 127.594 200.427ZM86.9963 209.844C84.5659 199.367 84.2656 189.46 86.0881 180.126C87.903 170.751 91.4146 162.283 96.5998 154.724C101.782 147.162 108.448 140.697 116.641 135.409C124.823 130.079 133.955 126.242 144.038 123.903C154.145 121.559 164.033 120.983 173.704 122.173C183.388 123.313 192.221 126.183 200.226 130.686C208.185 135.196 215.064 141.254 220.821 148.873C226.57 156.45 230.66 165.478 233.09 175.956C235.512 186.393 235.818 196.319 233.997 205.674C232.176 215.024 228.662 223.474 223.507 231.049C218.306 238.635 211.628 245.058 203.444 250.387C195.282 255.695 186.149 259.53 176.042 261.874C165.959 264.213 156.071 264.79 146.382 263.623C136.688 262.441 127.867 259.614 119.88 255.087C111.892 250.56 105.015 244.521 99.2637 236.927C93.5136 229.328 89.4174 220.282 86.9963 209.844Z" fill="#F2C94C"/>
<path id="Fill 4" fill-rule="evenodd" clip-rule="evenodd" d="M330.119 330.718L272.104 279.749L320.01 268.636L351.542 298.952L365.714 258.035L410.892 247.555L382.32 318.61L449.223 377.213L401.365 388.314L362.512 351.159L341.833 402.123L294.504 413.102L330.119 330.718Z" fill="#F2C94C"/>
</g>
</g>
</svg>
