<?xml version="1.0" encoding="UTF-8"?>
<svg width="95px" height="78px" viewBox="0 0 95 78" version="1.1" xmlns="http://www.w3.org/2000/svg" xmlns:xlink="http://www.w3.org/1999/xlink">
    <!-- Generator: Sketch 58 (84663) - https://sketch.com -->
    <title>“</title>
    <desc>Created with Sketch.</desc>
    <g id="Case-Studies" stroke="none" stroke-width="1" fill="none" fill-rule="evenodd">
        <g id="Case-Studies:-md" transform="translate(-221.000000, -5177.000000)" fill="#FFFFFF">
            <g id="View">
                <g id="Testimonial" transform="translate(0.000000, 4900.000000)">
                    <g transform="translate(116.000000, 48.000000)" id="Quote">
                        <g>
                            <g transform="translate(0.000000, 229.000000)">
                                <g id="Quotation-mark" transform="translate(105.000000, 0.000000)">
                                    <path d="M38.7096774,0 L39.4354839,9.59621451 C21.2903226,13.0410095 16.9354839,21.8990536 16.9354839,28.29653 C16.9354839,36.9085174 23.2258065,39.1230284 29.516129,40.1072555 C37.7419355,41.3375394 45,46.9968454 45,59.7917981 C45,70.3722397 37.016129,78 25.6451613,78 C11.3709677,78 0,64.9589905 0,44.2902208 C0,17.2239748 18.3870968,2.70662461 38.7096774,0 Z M88.7096774,0 L89.4354839,9.59621451 C71.2903226,13.0410095 66.9354839,21.8990536 66.9354839,28.29653 C66.9354839,36.9085174 73.2258065,39.1230284 79.516129,40.1072555 C87.7419355,41.3375394 95,46.9968454 95,59.7917981 C95,70.3722397 87.016129,78 75.6451613,78 C61.3709677,78 50,64.9589905 50,44.2902208 C50,17.2239748 68.3870968,2.70662461 88.7096774,0 Z" id="“"></path>
                                </g>
                            </g>
                        </g>
                    </g>
                </g>
            </g>
        </g>
    </g>
</svg>